<?xml version="1.0" encoding="utf-8"?>
<!-- Generator: Adobe Illustrator 24.0.3, SVG Export Plug-In . SVG Version: 6.00 Build 0)  -->
<svg version="1.1" id="Layer_1" xmlns="http://www.w3.org/2000/svg" xmlns:xlink="http://www.w3.org/1999/xlink" x="0px" y="0px"
	 viewBox="0 0 160 43" style="enable-background:new 0 0 160 43;" xml:space="preserve">
<style type="text/css">
	.st0{fill:#FFFFFF;}
	.st1{fill:#009E96;}
</style>
<g>
	<g>
		<path class="st0" d="M6.94,24.41H5.06v-2.56c0-0.36-0.05-0.59-0.16-0.69C4.79,21.06,4.57,21,4.22,21h-1.5
			c-0.36,0-0.59,0.05-0.69,0.15c-0.1,0.1-0.15,0.33-0.15,0.69v12.06c0,0.34,0.05,0.57,0.15,0.68c0.1,0.11,0.33,0.16,0.69,0.16h1.5
			c0.34,0,0.57-0.05,0.68-0.16c0.11-0.11,0.16-0.34,0.16-0.68v-2.56h1.88v2.86c0,1.43-0.72,2.15-2.15,2.15H2.15
			C0.72,36.36,0,35.65,0,34.21V21.55c0-1.43,0.72-2.15,2.15-2.15h2.64c1.43,0,2.15,0.72,2.15,2.15V24.41z"/>
		<path class="st0" d="M9.2,20.3v-2.21h1.99v2.21H9.2z M11.14,36.34H9.26V23.13h1.88V36.34z"/>
		<path class="st0" d="M17.45,24.74h-1.88v9.01c0,0.34,0.05,0.57,0.16,0.68c0.11,0.11,0.34,0.16,0.68,0.16h1.03v1.74h-1.61
			c-1.43,0-2.15-0.72-2.15-2.15v-9.45h-1.2v-1.61h1.2v-2.15h1.88v2.15h1.88V24.74z"/>
		<path class="st0" d="M20.64,40.17h-1.47v-1.61h0.9c0.78,0,1.23-0.28,1.36-0.84l0.33-1.39h-1.22L18,23.13h1.88L22,35.03l1.99-11.9
			h1.88l-2.64,14.89C22.95,39.46,22.09,40.17,20.64,40.17z"/>
		<path class="st0" d="M36.71,19.4h1.88v16.94h-1.88v-7.65h-3.65v7.65h-1.88V19.4h1.88v7.68h3.65V19.4z"/>
		<path class="st0" d="M43.32,23.13h2.78c1.43,0,2.15,0.72,2.15,2.15v8.9c0,1.43-0.72,2.15-2.15,2.15h-2.78
			c-1.43,0-2.15-0.72-2.15-2.15v-8.9C41.17,23.85,41.89,23.13,43.32,23.13z M46.4,33.88v-8.31c0-0.34-0.05-0.57-0.16-0.68
			c-0.11-0.11-0.34-0.16-0.68-0.16h-1.69c-0.34,0-0.57,0.05-0.68,0.16c-0.11,0.11-0.16,0.34-0.16,0.68v8.31
			c0,0.36,0.05,0.59,0.16,0.69c0.11,0.1,0.34,0.15,0.68,0.15h1.69c0.34,0,0.57-0.05,0.68-0.15C46.34,34.48,46.4,34.25,46.4,33.88z"
			/>
		<path class="st0" d="M58.68,23.13h1.09c1.43,0,2.15,0.72,2.15,2.15v11.06h-1.88V25.58c0-0.34-0.05-0.57-0.15-0.68
			c-0.1-0.11-0.33-0.16-0.69-0.16h-1.09c-0.33,0-0.56,0.07-0.71,0.22c-0.15,0.15-0.22,0.4-0.22,0.76v10.62H55.3V25.58
			c0-0.34-0.05-0.57-0.15-0.68c-0.1-0.11-0.33-0.16-0.69-0.16h-1.09c-0.33,0-0.56,0.07-0.71,0.22c-0.15,0.15-0.22,0.4-0.22,0.76
			v10.62h-1.88V23.13h1.88v0.9c0.2-0.6,0.7-0.9,1.5-0.9h1.09c1.03,0,1.7,0.36,1.99,1.09C57.2,23.49,57.75,23.13,58.68,23.13z"/>
		<path class="st0" d="M66.39,23.13h2.51c1.43,0,2.15,0.72,2.15,2.15v5.09h-4.93v3.51c0,0.36,0.05,0.59,0.16,0.69
			c0.11,0.1,0.34,0.15,0.68,0.15h1.28c0.36,0,0.59-0.05,0.69-0.15c0.1-0.1,0.15-0.33,0.15-0.69v-1.2h1.88v1.5
			c0,1.43-0.72,2.15-2.15,2.15h-2.42c-1.43,0-2.15-0.72-2.15-2.15v-8.9C64.23,23.85,64.95,23.13,66.39,23.13z M66.11,28.77h3.05
			v-3.19c0-0.34-0.05-0.57-0.16-0.68c-0.11-0.11-0.34-0.16-0.68-0.16h-1.36c-0.34,0-0.57,0.05-0.68,0.16
			c-0.11,0.11-0.16,0.34-0.16,0.68V28.77z"/>
		<path class="st0" d="M77.3,19.4h1.85v16.94H77.3V19.4z"/>
		<path class="st0" d="M85.53,23.13h1.09c1.43,0,2.15,0.72,2.15,2.15v11.06h-1.88V25.58c0-0.34-0.05-0.57-0.15-0.68
			c-0.1-0.11-0.33-0.16-0.69-0.16h-1.09c-0.33,0-0.56,0.07-0.71,0.22c-0.15,0.15-0.22,0.4-0.22,0.76v10.62h-1.88V23.13h1.88v0.9
			C84.23,23.43,84.73,23.13,85.53,23.13z"/>
		<path class="st0" d="M95.28,33.91v-2.5c0-0.34-0.05-0.57-0.16-0.68c-0.11-0.11-0.34-0.16-0.68-0.16H93.1
			c-1.43,0-2.15-0.72-2.15-2.15v-3.13c0-1.43,0.72-2.15,2.15-2.15h1.85c1.43,0,2.15,0.72,2.15,2.15v1.33h-1.85v-1.06
			c0-0.36-0.05-0.59-0.15-0.69c-0.1-0.1-0.33-0.15-0.69-0.15h-0.76c-0.36,0-0.59,0.05-0.69,0.15c-0.1,0.1-0.15,0.33-0.15,0.69v2.59
			c0,0.34,0.05,0.57,0.15,0.68c0.1,0.11,0.33,0.16,0.69,0.16h1.33c1.43,0,2.15,0.72,2.15,2.15v3.05c0,1.43-0.72,2.15-2.15,2.15
			h-1.82c-1.43,0-2.15-0.72-2.15-2.15v-1.33h1.85v1.06c0,0.34,0.05,0.57,0.15,0.68c0.1,0.11,0.33,0.16,0.69,0.16h0.74
			c0.34,0,0.57-0.05,0.68-0.16C95.22,34.48,95.28,34.26,95.28,33.91z"/>
		<path class="st0" d="M102.68,23.13h1.09c1.43,0,2.15,0.72,2.15,2.15v8.9c0,1.43-0.72,2.15-2.15,2.15h-1.09c-0.8,0-1.3-0.3-1.5-0.9
			v4.74h-1.88V23.13h1.88v0.9C101.38,23.43,101.88,23.13,102.68,23.13z M104.04,33.88v-8.31c0-0.34-0.05-0.57-0.15-0.68
			c-0.1-0.11-0.33-0.16-0.69-0.16h-1.09c-0.33,0-0.56,0.07-0.71,0.22c-0.15,0.15-0.22,0.4-0.22,0.76v8.03
			c0,0.36,0.07,0.62,0.22,0.76c0.15,0.15,0.38,0.22,0.71,0.22h1.09c0.36,0,0.59-0.05,0.69-0.15
			C103.99,34.48,104.04,34.25,104.04,33.88z"/>
		<path class="st0" d="M110.39,23.13h2.51c1.43,0,2.15,0.72,2.15,2.15v5.09h-4.93v3.51c0,0.36,0.05,0.59,0.16,0.69
			c0.11,0.1,0.34,0.15,0.68,0.15h1.28c0.36,0,0.59-0.05,0.69-0.15c0.1-0.1,0.15-0.33,0.15-0.69v-1.2h1.88v1.5
			c0,1.43-0.72,2.15-2.15,2.15h-2.42c-1.43,0-2.15-0.72-2.15-2.15v-8.9C108.24,23.85,108.95,23.13,110.39,23.13z M110.12,28.77h3.05
			v-3.19c0-0.34-0.05-0.57-0.16-0.68c-0.11-0.11-0.34-0.16-0.68-0.16h-1.36c-0.34,0-0.57,0.05-0.68,0.16
			c-0.11,0.11-0.16,0.34-0.16,0.68V28.77z"/>
		<path class="st0" d="M123.89,27.05h-1.88v-1.47c0-0.34-0.05-0.57-0.15-0.68c-0.1-0.11-0.33-0.16-0.69-0.16h-1.36
			c-0.36,0-0.59,0.05-0.69,0.16c-0.1,0.11-0.15,0.34-0.15,0.68v8.31c0,0.36,0.05,0.59,0.15,0.69c0.1,0.1,0.33,0.15,0.69,0.15h1.36
			c0.36,0,0.59-0.05,0.69-0.15c0.1-0.1,0.15-0.33,0.15-0.69v-1.47h1.88v1.77c0,1.43-0.72,2.15-2.15,2.15h-2.5
			c-1.43,0-2.15-0.72-2.15-2.15v-8.9c0-1.43,0.72-2.15,2.15-2.15h2.5c1.43,0,2.15,0.72,2.15,2.15V27.05z"/>
		<path class="st0" d="M129.94,24.74h-1.88v9.01c0,0.34,0.05,0.57,0.16,0.68c0.11,0.11,0.34,0.16,0.68,0.16h1.03v1.74h-1.61
			c-1.43,0-2.15-0.72-2.15-2.15v-9.45h-1.2v-1.61h1.2v-2.15h1.88v2.15h1.88V24.74z"/>
		<path class="st0" d="M131.38,20.3v-2.21h1.99v2.21H131.38z M133.32,36.34h-1.88V23.13h1.88V36.34z"/>
		<path class="st0" d="M137.78,23.13h2.78c1.43,0,2.15,0.72,2.15,2.15v8.9c0,1.43-0.72,2.15-2.15,2.15h-2.78
			c-1.43,0-2.15-0.72-2.15-2.15v-8.9C135.63,23.85,136.35,23.13,137.78,23.13z M140.86,33.88v-8.31c0-0.34-0.05-0.57-0.16-0.68
			c-0.11-0.11-0.34-0.16-0.68-0.16h-1.69c-0.34,0-0.57,0.05-0.68,0.16c-0.11,0.11-0.16,0.34-0.16,0.68v8.31
			c0,0.36,0.05,0.59,0.16,0.69c0.11,0.1,0.34,0.15,0.68,0.15h1.69c0.34,0,0.57-0.05,0.68-0.15
			C140.8,34.48,140.86,34.25,140.86,33.88z"/>
		<path class="st0" d="M148.4,23.13h1.09c1.43,0,2.15,0.72,2.15,2.15v11.06h-1.88V25.58c0-0.34-0.05-0.57-0.15-0.68
			c-0.1-0.11-0.33-0.16-0.69-0.16h-1.09c-0.33,0-0.56,0.07-0.71,0.22c-0.15,0.15-0.22,0.4-0.22,0.76v10.62h-1.88V23.13h1.88v0.9
			C147.1,23.43,147.6,23.13,148.4,23.13z"/>
		<path class="st0" d="M158.15,33.91v-2.5c0-0.34-0.05-0.57-0.16-0.68s-0.34-0.16-0.68-0.16h-1.33c-1.43,0-2.15-0.72-2.15-2.15
			v-3.13c0-1.43,0.72-2.15,2.15-2.15h1.85c1.43,0,2.15,0.72,2.15,2.15v1.33h-1.85v-1.06c0-0.36-0.05-0.59-0.15-0.69
			c-0.1-0.1-0.33-0.15-0.69-0.15h-0.76c-0.36,0-0.59,0.05-0.69,0.15c-0.1,0.1-0.15,0.33-0.15,0.69v2.59c0,0.34,0.05,0.57,0.15,0.68
			c0.1,0.11,0.33,0.16,0.69,0.16h1.33c1.43,0,2.15,0.72,2.15,2.15v3.05c0,1.43-0.72,2.15-2.15,2.15h-1.82
			c-1.43,0-2.15-0.72-2.15-2.15v-1.33h1.85v1.06c0,0.34,0.05,0.57,0.15,0.68c0.1,0.11,0.33,0.16,0.69,0.16h0.74
			c0.34,0,0.57-0.05,0.68-0.16C158.09,34.48,158.15,34.26,158.15,33.91z"/>
	</g>
	<polygon class="st0" points="51.79,21.73 56.87,10.29 64.14,22.16 61.84,22.16 57.04,13.36 	"/>
	<polygon class="st0" points="65.04,22.16 57.96,10.29 67.21,13.73 67.69,16.22 67.69,11.69 70.8,12.07 70.8,14.61 72.01,14.95 	"/>
	<polygon class="st0" points="116.52,21.73 111.44,10.29 104.17,22.16 106.47,22.16 111.27,13.36 	"/>
	<polygon class="st0" points="103.26,22.16 110.34,10.29 101.1,13.73 100.61,16.22 100.61,11.69 97.51,12.07 97.51,14.61 
		96.3,14.95 	"/>
	<polygon class="st0" points="66.18,22.16 84.17,3.48 102.23,22.16 97.86,22.16 84.29,7.23 70.49,22.16 	"/>
	<g>
		<path class="st1" d="M84.09,13.71v2.88h-2.87v-0.32C81.22,14.88,82.49,13.76,84.09,13.71z"/>
		<path class="st1" d="M81.22,16.97h2.87v2.49l0,0c-1.58,0-2.87-1.1-2.87-2.46V16.97z"/>
		<path class="st1" d="M87.18,16.97v0.17c0,0.66-0.32,1.26-0.84,1.69c-0.48,0.4-1.13,0.64-1.85,0.64v-2.49H87.18z"/>
		<path class="st1" d="M87.19,16.58h-2.69v-2.87c1.51,0.12,2.69,1.22,2.69,2.55V16.58z"/>
	</g>
	<g>
		<polygon class="st1" points="86.91,18.19 90.29,22.57 90.09,22.78 85.7,19.39 		"/>
	</g>
</g>
</svg>
